<svg xmlns="http://www.w3.org/2000/svg" viewBox="0 0 36 44"><title>database@1x</title><g id="Layer_2" data-name="Layer 2"><g id="Web"><g id="Servers_2x.png" data-name="Servers@2x.png"><path d="M36,6c0-3.31-8.06-6-18-6S0,2.69,0,6v8a2.82,2.82,0,0,0,1,2,2.82,2.82,0,0,0-1,2v8a2.82,2.82,0,0,0,1,2,2.82,2.82,0,0,0-1,2v8c0,3.31,8.06,6,18,6s18-2.69,18-6V30a2.82,2.82,0,0,0-1-2,2.82,2.82,0,0,0,1-2V18a2.82,2.82,0,0,0-1-2,2.82,2.82,0,0,0,1-2ZM34,35.26V38c0,2.21-7.16,4-16,4S2,40.21,2,38V32.74C5,34.67,11,36,18,36s13-1.33,16-3.26ZM18,34C9.16,34,2,32.21,2,30a1.41,1.41,0,0,1,.49-1c3.13,1.77,8.89,3,15.51,3s12.38-1.19,15.51-3A1.41,1.41,0,0,1,34,30C34,32.21,26.84,34,18,34ZM34,23.26V26c0,2.21-7.16,4-16,4S2,28.21,2,26V20.74C5,22.67,11,24,18,24s13-1.33,16-3.26ZM18,22C9.16,22,2,20.21,2,18a1.41,1.41,0,0,1,.49-1c3.13,1.77,8.89,3,15.51,3s12.38-1.19,15.51-3A1.41,1.41,0,0,1,34,18C34,20.21,26.84,22,18,22ZM34,11.26V14c0,2.21-7.16,4-16,4S2,16.21,2,14V8.74C5,10.67,11,12,18,12s13-1.33,16-3.26ZM18,10C9.16,10,2,8.21,2,6S9.16,2,18,2,34,3.79,34,6,26.84,10,18,10Z"/></g></g></g></svg>